<svg xmlns="http://www.w3.org/2000/svg" width="135" height="42" viewBox="0 0 135 42" fill="none">
  <path d="M124.277 0H10.7232C10.3846 0 9.93311 0 9.48161 0C9.14298 0 8.80435 0 8.46572 0C7.67559 0 6.99833 0.103555 6.20819 0.207109C5.53094 0.310664 4.7408 0.517773 4.06355 0.828438C3.38629 1.1391 2.82191 1.55332 2.25753 2.07109C1.69314 2.58887 1.24164 3.10664 0.90301 3.72797C0.564381 4.3493 0.338629 5.07418 0.225753 5.69551C0.112876 6.42039 0 7.14527 0 7.7666C0 8.07727 0 8.38793 0 8.69859V32.6197C0 32.9304 0 33.2411 0 33.5517C0 34.2766 0.112876 34.8979 0.225753 35.6228C0.338629 36.3477 0.564381 36.969 0.90301 37.5904C1.24164 38.3152 1.69314 38.833 2.25753 39.3508C2.82191 39.8686 3.38629 40.2828 4.06355 40.5934C4.7408 40.9041 5.41806 41.1112 6.20819 41.2148C6.99833 41.3183 7.67559 41.4219 8.46572 41.4219C8.80435 41.4219 9.14298 41.4219 9.48161 41.4219C9.93311 41.4219 10.2717 41.4219 10.7232 41.4219H124.277C124.728 41.4219 125.067 41.4219 125.518 41.4219C125.857 41.4219 126.196 41.4219 126.534 41.4219C127.324 41.4219 128.002 41.3183 128.792 41.2148C129.582 41.1112 130.259 40.9041 130.936 40.5934C131.614 40.2828 132.178 39.8686 132.742 39.3508C133.307 38.833 133.758 38.3152 134.097 37.6939C134.436 37.0726 134.661 36.4513 134.774 35.7264C134.887 35.0015 135 34.3802 135 33.6553C135 33.3446 135 33.0339 135 32.7233C135 32.3091 135 31.9984 135 31.5842V9.8377C135 9.42348 135 9.11281 135 8.69859C135 8.38793 135 8.07727 135 7.7666C135 7.04172 134.887 6.42039 134.774 5.69551C134.661 4.97062 134.436 4.3493 134.097 3.72797C133.42 2.48531 132.291 1.44977 130.936 0.828438C130.259 0.517773 129.582 0.310664 128.792 0.207109C128.002 0.103555 127.324 0 126.534 0C126.196 0 125.857 0 125.518 0C125.18 0 124.728 0 124.277 0Z" fill="#A6A6A6"/>
  <path d="M9.55885 40.3857C9.221 40.3857 8.88315 40.3857 8.5453 40.3857C7.8696 40.3857 7.08129 40.2827 6.40559 40.1797C5.72989 40.0767 5.16681 39.8707 4.49111 39.6647C3.92803 39.3556 3.36494 39.0466 2.91448 38.6345C2.46401 38.2225 2.01355 37.7074 1.78831 37.1924C1.45047 36.6773 1.33785 36.0592 1.22523 35.4412C1.11262 34.8231 1 34.205 1 33.4839C1 33.2779 1 32.5568 1 32.5568V8.76106C1 8.76106 1 8.03997 1 7.83395C1 7.21588 1.11262 6.49479 1.22523 5.87672C1.33785 5.36166 1.56308 4.74359 1.90093 4.22853C2.23878 3.71347 2.57663 3.19841 3.0271 2.78636C3.47756 2.37431 4.04064 2.06528 4.60373 1.75624C5.16681 1.4472 5.84251 1.34419 6.5182 1.24118C7.1939 1.13817 7.8696 1.03516 8.65792 1.03516H9.67146H125.441H126.455C127.13 1.03516 127.806 1.13817 128.594 1.24118C129.27 1.34419 129.833 1.55022 130.509 1.75624C131.635 2.2713 132.649 3.19841 133.212 4.22853C133.55 4.74359 133.662 5.36166 133.775 5.87672C133.887 6.49479 134 7.21588 134 7.83395C134 8.14299 134 8.45202 134 8.76106C134 9.17311 134 9.48214 134 9.89419V31.4237C134 31.8358 134 32.1448 134 32.5568C134 32.8659 134 33.1749 134 33.4839C134 34.102 133.887 34.7201 133.775 35.4412C133.662 36.0592 133.437 36.5743 133.212 37.1924C132.874 37.7074 132.536 38.2225 132.086 38.6345C131.635 39.0466 131.072 39.4586 130.509 39.6647C129.946 39.9737 129.27 40.1797 128.594 40.1797C127.919 40.2827 127.243 40.3857 126.455 40.3857C126.117 40.3857 125.779 40.3857 125.441 40.3857H124.202H9.55885Z" fill="black"/>
  <path d="M24.7998 21.0219C24.7998 19.2615 25.6998 17.6046 27.1998 16.6726C26.2998 15.3264 24.7998 14.4979 23.1998 14.3944C21.4998 14.1873 19.8998 15.4299 18.9998 15.4299C18.0998 15.4299 16.7998 14.3944 15.3998 14.3944C13.4998 14.4979 11.7998 15.5335 10.8998 17.1904C8.99984 20.6077 10.3998 25.7854 12.2998 28.5814C13.1998 29.9276 14.2998 31.481 15.6998 31.481C17.0998 31.3774 17.5998 30.549 19.2998 30.549C20.9998 30.549 21.3998 31.481 22.8998 31.481C24.3998 31.481 25.2998 30.1347 26.1998 28.685C26.8998 27.753 27.3998 26.6139 27.6998 25.4748C25.8998 24.8534 24.7998 22.9894 24.7998 21.0219Z" fill="white"/>
  <path d="M22.0003 12.6332C22.8003 11.5976 23.2003 10.355 23.1003 9.00879C21.9003 9.11234 20.7003 9.73367 19.9003 10.7692C19.1003 11.7012 18.7003 12.9438 18.8003 14.29C20.1003 14.29 21.2003 13.6687 22.0003 12.6332Z" fill="white"/>
  <path d="M42.3 28.0637H37.6L36.5 31.5845H34.5L39 18.7441H41L45.5 31.5845H43.5L42.3 28.0637ZM38.1 26.5105H41.9L40 20.8152H39.9L38.1 26.5105Z" fill="white"/>
  <path d="M55.1992 26.9237C55.1992 29.8233 53.6992 31.6873 51.3992 31.6873C50.1992 31.7909 49.0992 31.066 48.5992 30.0304V34.6904H46.6992V22.2637H48.4992V23.817C49.0992 22.7815 50.1992 22.1602 51.3992 22.1602C53.5992 22.0566 55.1992 24.0242 55.1992 26.9237ZM53.1992 26.9237C53.1992 25.0597 52.2992 23.817 50.7992 23.817C49.3992 23.817 48.3992 25.0597 48.3992 26.9237C48.3992 28.7877 49.3992 30.0304 50.7992 30.0304C52.2992 30.0304 53.1992 28.7877 53.1992 26.9237Z" fill="white"/>
  <path d="M65.1016 26.9237C65.1016 29.8233 63.6016 31.6873 61.3016 31.6873C60.1016 31.7909 59.0016 31.066 58.5016 30.0304V34.6904H56.6016V22.2637H58.4016V23.817C59.0016 22.7815 60.1016 22.1602 61.3016 22.1602C63.6016 22.0566 65.1016 24.0242 65.1016 26.9237ZM63.2016 26.9237C63.2016 25.0597 62.3016 23.817 60.8016 23.817C59.4016 23.817 58.4016 25.0597 58.4016 26.9237C58.4016 28.7877 59.4016 30.0304 60.8016 30.0304C62.3016 30.0304 63.2016 28.7877 63.2016 26.9237Z" fill="white"/>
  <path d="M71.7 27.9599C71.8 29.2026 73 30.031 74.7 30.031C76.3 30.031 77.4 29.2026 77.4 28.0634C77.4 27.0279 76.7 26.5101 75.1 26.0958L73.5 25.6816C71.2 25.0603 70.2 24.0247 70.2 22.2642C70.2 20.0895 72.1 18.5361 74.7 18.5361C77.3 18.5361 79.1 20.0895 79.2 22.2642H77.3C77.2 21.0215 76.2 20.1931 74.7 20.1931C73.2 20.1931 72.2 21.0215 72.2 22.1606C72.2 23.0927 72.9 23.6105 74.5 24.0247L75.9 24.3354C78.4 24.9567 79.5 25.9923 79.5 27.8563C79.5 30.2381 77.6 31.7915 74.7 31.7915C71.9 31.7915 70.1 30.3417 70 27.9599H71.7Z" fill="white"/>
  <path d="M83.2992 19.9863V22.1611H84.9992V23.7144H83.2992V28.8924C83.2992 29.7209 83.5992 30.0315 84.3992 30.0315C84.5992 30.0315 84.7992 30.0315 84.9992 30.0315V31.5849C84.6992 31.6885 84.2992 31.6885 83.9992 31.6885C82.1992 31.6885 81.4992 30.9636 81.4992 29.2031V23.818H80.1992V22.2646H81.4992V20.0899H83.2992V19.9863Z" fill="white"/>
  <path d="M86.1016 26.9238C86.1016 24.0242 87.8016 22.1602 90.4016 22.1602C93.0016 22.1602 94.7016 24.0242 94.7016 26.9238C94.7016 29.927 93.0016 31.6875 90.4016 31.6875C87.7016 31.6875 86.1016 29.8235 86.1016 26.9238ZM92.8016 26.9238C92.8016 24.8527 91.9016 23.7135 90.4016 23.7135C88.9016 23.7135 88.0016 24.8527 88.0016 26.9238C88.0016 28.995 88.9016 30.1341 90.4016 30.1341C91.9016 30.1341 92.8016 28.8914 92.8016 26.9238Z" fill="white"/>
  <path d="M96.1992 22.1602H97.9992V23.8171C98.1992 22.7816 99.1992 22.0567 100.199 22.1602C100.399 22.1602 100.599 22.1602 100.799 22.2638V24.0243C100.499 23.9207 100.199 23.9207 99.9992 23.9207C98.9992 23.9207 98.0992 24.7492 98.0992 25.7847C98.0992 25.8883 98.0992 25.9919 98.0992 26.0954V31.6875H96.1992V22.1602Z" fill="white"/>
  <path d="M109.399 28.7882C109.199 30.4452 107.499 31.688 105.499 31.688C102.899 31.688 101.199 29.8239 101.199 26.9241C101.199 24.0243 102.799 22.0566 105.399 22.0566C107.899 22.0566 109.499 23.8172 109.499 26.717V27.3383H103.099V27.4419C102.999 28.7882 103.899 29.9274 105.199 30.1345C105.299 30.1345 105.399 30.1345 105.499 30.1345C106.399 30.2381 107.299 29.7203 107.599 28.7882H109.399ZM103.099 25.992H107.599C107.699 24.7493 106.699 23.7136 105.499 23.6101C105.399 23.6101 105.399 23.6101 105.299 23.6101C104.099 23.6101 103.099 24.6457 103.099 25.992Z" fill="white"/>
  <path d="M35.4023 12.1162C35.4023 10.1488 36.4023 8.90628 38.1023 8.90628C39.3024 8.80274 40.4024 9.73464 40.6024 11.0807H39.7024C39.5024 10.3559 38.9024 9.83819 38.1023 9.83819C37.0023 9.83819 36.4023 10.7701 36.4023 12.2197C36.4023 13.6693 37.1023 14.6013 38.1023 14.6013C38.8024 14.7048 39.5024 14.1871 39.7024 13.4623H40.6024C40.4024 14.7048 39.3024 15.6367 38.1023 15.5332C36.5023 15.3261 35.4023 14.0835 35.4023 12.1162Z" fill="white"/>
  <path d="M41.6022 12.8413C41.5022 11.5988 42.3022 10.5634 43.5022 10.4599C44.7022 10.3564 45.7022 11.1847 45.8022 12.4271C45.8022 12.5307 45.8022 12.7378 45.8022 12.8413C45.9022 14.0838 45.1022 15.1192 43.9022 15.2227C42.7022 15.3263 41.7022 14.4979 41.6022 13.2555C41.6022 13.1519 41.6022 13.0484 41.6022 12.8413ZM44.9022 12.8413C44.9022 11.8059 44.5022 11.2882 43.7022 11.2882C42.9022 11.2882 42.5022 11.9094 42.5022 12.8413C42.5022 13.8767 42.9022 14.4979 43.7022 14.4979C44.5022 14.4979 44.9022 13.8767 44.9022 12.8413Z" fill="white"/>
  <path d="M47.0039 10.564H47.9039V11.2888H48.0039C48.2039 10.7711 48.8039 10.4605 49.3039 10.4605C50.1039 10.3569 50.8039 10.9782 50.9039 11.9101C50.9039 12.0137 50.9039 12.1172 50.9039 12.2208V15.2236H50.0039V12.4279C50.0039 11.703 49.7039 11.2888 49.0039 11.2888C48.4039 11.2888 47.9039 11.703 47.9039 12.3243C47.9039 12.4279 47.9039 12.4279 47.9039 12.5314V15.2236H47.0039V10.564Z" fill="white"/>
  <path d="M53.9039 10.46C54.9039 10.46 55.6039 10.9777 55.7039 11.8061H54.8039C54.7039 11.4954 54.4039 11.2883 53.9039 11.2883C53.4039 11.2883 53.0039 11.4954 53.0039 11.9096C53.0039 12.2202 53.2039 12.3238 53.7039 12.5309L54.4039 12.738C55.3039 12.9451 55.7039 13.3593 55.7039 13.9805C55.7039 14.8089 54.9039 15.4302 53.8039 15.4302C52.7039 15.4302 52.0039 14.9124 52.0039 14.0841H52.9039C53.1039 14.4983 53.5039 14.7054 53.9039 14.7054C54.5039 14.7054 54.8039 14.4983 54.8039 14.0841C54.8039 13.7734 54.6039 13.6699 54.1039 13.5663L53.3039 13.3593C52.4039 13.1522 52.0039 12.738 52.0039 12.0132C52.1039 11.0812 52.9039 10.46 53.9039 10.46Z" fill="white"/>
  <path d="M56.9023 9.73488L57.9023 8.28516H58.9023L57.7023 9.73488H56.9023ZM57.0023 10.5633H57.9023V15.2231H57.0023V10.5633Z" fill="white"/>
  <path d="M59.2039 15.6373H60.1039C60.2039 15.9479 60.6039 16.155 61.2039 16.155C61.9039 16.155 62.4039 15.7408 62.4039 15.2231V14.2912H62.3039C62.0039 14.8089 61.5039 15.1196 60.9039 15.1196C59.8039 15.1196 59.0039 14.1876 59.0039 12.8415C59.0039 11.3919 59.7039 10.46 60.9039 10.46C61.5039 10.46 62.0039 10.7706 62.3039 11.2883H62.4039V10.5635H63.3039V15.2231C63.3039 16.2586 62.5039 16.9834 61.2039 16.9834C60.0039 16.9834 59.3039 16.4657 59.2039 15.6373ZM62.4039 12.8415C62.4039 11.9096 61.9039 11.2883 61.2039 11.2883C60.4039 11.2883 60.0039 11.9096 60.0039 12.8415C60.0039 13.7735 60.4039 14.3947 61.2039 14.3947C61.9039 14.3947 62.4039 13.7735 62.4039 12.8415Z" fill="white"/>
  <path d="M68.5039 15.2227H67.6039V14.4978H67.5039C67.3039 15.0156 66.7039 15.4299 66.1039 15.3263C65.3039 15.4299 64.6039 14.8085 64.5039 13.8765C64.5039 13.7729 64.5039 13.6693 64.5039 13.5658V10.5625H65.4039V13.3586C65.4039 14.0836 65.7039 14.4978 66.3039 14.4978C66.9039 14.6014 67.4039 14.0836 67.4039 13.5658C67.4039 13.4622 67.4039 13.4622 67.4039 13.3586V10.6661H68.3039L68.5039 15.2227Z" fill="white"/>
  <path d="M73.7009 13.9802C73.5009 14.8088 72.6009 15.4302 71.7009 15.3266C70.6009 15.3266 69.6009 14.3945 69.6009 13.2553C69.6009 13.1517 69.6009 13.0481 69.6009 12.9445C69.4009 11.8053 70.2009 10.6661 71.4009 10.5625C71.5009 10.5625 71.6009 10.5625 71.7009 10.5625C73.0009 10.5625 73.7009 11.4946 73.7009 12.9445V13.2553H70.5009C70.5009 13.8767 71.0009 14.4981 71.6009 14.4981H71.7009C72.1009 14.6016 72.6009 14.2909 72.8009 13.9802H73.7009ZM70.6009 12.4267H72.9009C72.9009 11.8053 72.5009 11.2875 71.9009 11.1839H71.8009C71.1009 11.2875 70.6009 11.8053 70.6009 12.4267Z" fill="white"/>
  <path d="M75.0039 8.69922H75.9039V15.2231H75.0039V8.69922Z" fill="white"/>
  <path d="M77.1022 12.8413C77.0022 11.5988 77.8022 10.5634 79.0022 10.4599C80.2022 10.3564 81.2022 11.1847 81.3022 12.4271C81.3022 12.5307 81.3022 12.7378 81.3022 12.8413C81.4022 14.0838 80.6022 15.1192 79.4022 15.2227C78.2022 15.3263 77.2022 14.4979 77.1022 13.2555C77.1022 13.1519 77.1022 13.0484 77.1022 12.8413ZM80.4022 12.8413C80.4022 11.8059 80.0022 11.2882 79.2022 11.2882C78.4022 11.2882 78.0022 11.9094 78.0022 12.8413C78.0022 13.8767 78.4022 14.4979 79.2022 14.4979C80.0022 14.4979 80.4022 13.8767 80.4022 12.8413Z" fill="white"/>
  <path d="M88.8025 13.9802C88.6025 14.8088 87.7025 15.4302 86.8025 15.3266C85.7025 15.3266 84.7025 14.3945 84.7025 13.2553C84.7025 13.1517 84.7025 13.0481 84.7025 12.9445C84.5025 11.8053 85.3025 10.6661 86.5025 10.5625C86.6025 10.5625 86.7025 10.5625 86.8025 10.5625C88.1025 10.5625 88.8025 11.4946 88.8025 12.9445V13.2553H85.6025C85.5025 13.9802 86.0025 14.4981 86.7025 14.6016H86.8025C87.2025 14.7052 87.7025 14.3945 87.9025 14.0838L88.8025 13.9802ZM85.7025 12.4267H88.0025C88.0025 11.8053 87.6025 11.2875 87.0025 11.1839H86.9025C86.2025 11.2875 85.7025 11.8053 85.7025 12.4267Z" fill="white"/>
  <path d="M90.0039 10.564H90.9039V11.2888H91.0039C91.2039 10.7711 91.8039 10.4605 92.3039 10.4605C93.1039 10.3569 93.8039 10.9782 93.9039 11.9101C93.9039 12.0137 93.9039 12.1172 93.9039 12.2208V15.2236H93.0039V12.4279C93.0039 11.703 92.7039 11.2888 92.0039 11.2888C91.4039 11.2888 90.9039 11.703 90.9039 12.3243C90.9039 12.4279 90.9039 12.4279 90.9039 12.5314V15.2236H90.0039V10.564Z" fill="white"/>
  <path d="M101.502 13.9802C101.302 14.8088 100.402 15.4302 99.5017 15.3266C98.4017 15.3266 97.4017 14.3945 97.4017 13.2553C97.4017 13.1517 97.4017 13.0481 97.4017 12.9445C97.2017 11.8053 98.0017 10.6661 99.2017 10.5625C99.3017 10.5625 99.4017 10.5625 99.5017 10.5625C100.802 10.5625 101.502 11.4946 101.502 12.9445V13.2553H98.3017C98.2017 13.9802 98.7017 14.4981 99.4017 14.6016H99.5017C99.9017 14.7052 100.402 14.3945 100.602 14.0838L101.502 13.9802ZM98.4017 12.4267H100.702C100.702 11.8053 100.302 11.2875 99.7017 11.1839H99.6017C98.9017 11.2875 98.4017 11.8053 98.4017 12.4267Z" fill="white"/>
  <path d="M102.801 8.69922H103.701V15.2231H102.801V8.69922Z" fill="white"/>
</svg>