<svg width="216" height="64" viewBox="0 0 216 64" fill="none" xmlns="http://www.w3.org/2000/svg">
<path d="M198.843 0H17.1572C16.6154 0 15.893 0 15.1706 0C14.6288 0 14.087 0 13.5452 0C12.2809 0 11.1973 0.16 9.93311 0.32C8.8495 0.48 7.58528 0.8 6.50167 1.28C5.41806 1.76 4.51505 2.4 3.61204 3.2C2.70903 4 1.98662 4.8 1.44482 5.76C0.90301 6.72 0.541806 7.84 0.361204 8.8C0.180602 9.92 0 11.04 0 12C0 12.48 0 12.96 0 13.44V50.4C0 50.88 0 51.36 0 51.84C0 52.96 0.180602 53.92 0.361204 55.04C0.541806 56.16 0.90301 57.12 1.44482 58.08C1.98662 59.2 2.70903 60 3.61204 60.8C4.51505 61.6 5.41806 62.24 6.50167 62.72C7.58528 63.2 8.6689 63.52 9.93311 63.68C11.1973 63.84 12.2809 64 13.5452 64C14.087 64 14.6288 64 15.1706 64C15.893 64 16.4348 64 17.1572 64H198.843C199.565 64 200.107 64 200.829 64C201.371 64 201.913 64 202.455 64C203.719 64 204.803 63.84 206.067 63.68C207.331 63.52 208.415 63.2 209.498 62.72C210.582 62.24 211.485 61.6 212.388 60.8C213.291 60 214.013 59.2 214.555 58.24C215.097 57.28 215.458 56.32 215.639 55.2C215.819 54.08 216 53.12 216 52C216 51.52 216 51.04 216 50.56C216 49.92 216 49.44 216 48.8V15.2C216 14.56 216 14.08 216 13.44C216 12.96 216 12.48 216 12C216 10.88 215.819 9.92 215.639 8.8C215.458 7.68 215.097 6.72 214.555 5.76C213.472 3.84 211.666 2.24 209.498 1.28C208.415 0.8 207.331 0.48 206.067 0.32C204.803 0.16 203.719 0 202.455 0C201.913 0 201.371 0 200.829 0C200.288 0 199.565 0 198.843 0Z" fill="#A6A6A6"/>
<path d="M15.2938 62.3998C14.7532 62.3998 14.2126 62.3998 13.6721 62.3998C12.591 62.3998 11.3297 62.2406 10.2486 62.0815C9.16743 61.9223 8.2665 61.604 7.18538 61.2857C6.28445 60.8082 5.38352 60.3307 4.66278 59.6941C3.94203 59.0574 3.22129 58.2616 2.86091 57.4658C2.32035 56.67 2.14017 55.715 1.95998 54.76C1.7798 53.8051 1.59961 52.8501 1.59961 51.736C1.59961 51.4177 1.59961 50.3035 1.59961 50.3035V13.5372C1.59961 13.5372 1.59961 12.4231 1.59961 12.1048C1.59961 11.1498 1.7798 10.0357 1.95998 9.08069C2.14017 8.28488 2.50054 7.32991 3.0411 6.5341C3.58166 5.7383 4.12222 4.94249 4.84296 4.30584C5.56371 3.6692 6.46464 3.19171 7.36557 2.71423C8.2665 2.23674 9.34762 2.07758 10.4287 1.91842C11.5099 1.75926 12.591 1.6001 13.8523 1.6001H15.474H200.705H202.327C203.408 1.6001 204.489 1.75926 205.751 1.91842C206.832 2.07758 207.733 2.39591 208.814 2.71423C210.616 3.51004 212.237 4.94249 213.138 6.5341C213.679 7.32991 213.859 8.28488 214.039 9.08069C214.219 10.0357 214.4 11.1498 214.4 12.1048C214.4 12.5822 214.4 13.0597 214.4 13.5372C214.4 14.1739 214.4 14.6513 214.4 15.288V48.5527C214.4 49.1894 214.4 49.6669 214.4 50.3035C214.4 50.781 214.4 51.2585 214.4 51.736C214.4 52.6909 214.219 53.6459 214.039 54.76C213.859 55.715 213.499 56.5108 213.138 57.4658C212.598 58.2616 212.057 59.0574 211.336 59.6941C210.616 60.3307 209.715 60.9673 208.814 61.2857C207.913 61.7632 206.832 62.0815 205.751 62.0815C204.67 62.2406 203.588 62.3998 202.327 62.3998C201.787 62.3998 201.246 62.3998 200.705 62.3998H198.723H15.2938Z" fill="black"/>
<path d="M39.6782 32.4799C39.6782 29.7599 41.1182 27.1999 43.5182 25.7598C42.0782 23.6798 39.6782 22.3998 37.1182 22.2398C34.3982 21.9198 31.8382 23.8398 30.3982 23.8398C28.9582 23.8398 26.8782 22.2398 24.6382 22.2398C21.5982 22.3998 18.8782 23.9998 17.4382 26.5598C14.3982 31.8399 16.6382 39.8399 19.6782 44.1599C21.1182 46.2399 22.8782 48.6399 25.1182 48.6399C27.3582 48.4799 28.1582 47.1999 30.8782 47.1999C33.5982 47.1999 34.2382 48.6399 36.6382 48.6399C39.0382 48.6399 40.4782 46.5599 41.9182 44.3199C43.0382 42.8799 43.8382 41.1199 44.3182 39.3599C41.4382 38.3999 39.6782 35.5199 39.6782 32.4799Z" fill="white"/>
<path d="M35.1993 19.5194C36.4793 17.9194 37.1193 15.9994 36.9593 13.9194C35.0393 14.0794 33.1193 15.0394 31.8393 16.6394C30.5593 18.0794 29.9193 19.9994 30.0793 22.0794C32.1593 22.0794 33.9193 21.1194 35.1993 19.5194Z" fill="white"/>
<path d="M67.6797 43.3602H60.1597L58.3997 48.8H55.1997L62.3997 28.9607H65.5997L72.7997 48.8H69.5997L67.6797 43.3602ZM60.9597 40.9603H67.0397L63.9997 32.1606H63.8397L60.9597 40.9603Z" fill="white"/>
<path d="M88.3197 41.6005C88.3197 46.0806 85.9197 48.9606 82.2397 48.9606C80.3197 49.1206 78.5597 48.0006 77.7597 46.4006V53.6007H74.7197V34.4004H77.5997V36.8004C78.5597 35.2004 80.3197 34.2404 82.2397 34.2404C85.7597 34.0804 88.3197 37.1204 88.3197 41.6005ZM85.1197 41.6005C85.1197 38.7205 83.6797 36.8004 81.2797 36.8004C79.0397 36.8004 77.4397 38.7205 77.4397 41.6005C77.4397 44.4805 79.0397 46.4006 81.2797 46.4006C83.6797 46.4006 85.1197 44.4805 85.1197 41.6005Z" fill="white"/>
<path d="M104.163 41.6005C104.163 46.0806 101.763 48.9606 98.0825 48.9606C96.1625 49.1206 94.4025 48.0006 93.6025 46.4006V53.6007H90.5625V34.4004H93.4425V36.8004C94.4025 35.2004 96.1625 34.2404 98.0825 34.2404C101.763 34.0804 104.163 37.1204 104.163 41.6005ZM101.123 41.6005C101.123 38.7205 99.6825 36.8004 97.2825 36.8004C95.0425 36.8004 93.4425 38.7205 93.4425 41.6005C93.4425 44.4805 95.0425 46.4006 97.2825 46.4006C99.6825 46.4006 101.123 44.4805 101.123 41.6005Z" fill="white"/>
<path d="M114.72 43.2005C114.88 45.1206 116.8 46.4006 119.52 46.4006C122.08 46.4006 123.84 45.1206 123.84 43.3605C123.84 41.7605 122.72 40.9605 120.16 40.3205L117.6 39.6804C113.92 38.7204 112.32 37.1204 112.32 34.4003C112.32 31.0402 115.36 28.6401 119.52 28.6401C123.68 28.6401 126.56 31.0402 126.72 34.4003H123.68C123.52 32.4802 121.92 31.2002 119.52 31.2002C117.12 31.2002 115.52 32.4802 115.52 34.2403C115.52 35.6803 116.64 36.4804 119.2 37.1204L121.44 37.6004C125.44 38.5604 127.2 40.1605 127.2 43.0405C127.2 46.7206 124.16 49.1207 119.52 49.1207C115.04 49.1207 112.16 46.8806 112 43.2005H114.72Z" fill="white"/>
<path d="M133.279 30.8799V34.24H135.999V36.6401H133.279V44.6404C133.279 45.9205 133.759 46.4005 135.039 46.4005C135.359 46.4005 135.679 46.4005 135.999 46.4005V48.8006C135.519 48.9606 134.879 48.9606 134.399 48.9606C131.519 48.9606 130.399 47.8406 130.399 45.1205V36.8001H128.319V34.4H130.399V31.0399H133.279V30.8799Z" fill="white"/>
<path d="M137.763 41.6005C137.763 37.1203 140.483 34.2402 144.643 34.2402C148.803 34.2402 151.523 37.1203 151.523 41.6005C151.523 46.2406 148.803 48.9607 144.643 48.9607C140.323 48.9607 137.763 46.0806 137.763 41.6005ZM148.483 41.6005C148.483 38.4004 147.043 36.6403 144.643 36.6403C142.243 36.6403 140.803 38.4004 140.803 41.6005C140.803 44.8006 142.243 46.5606 144.643 46.5606C147.043 46.5606 148.483 44.6406 148.483 41.6005Z" fill="white"/>
<path d="M153.919 34.2403H156.799V36.8004C157.119 35.2003 158.719 34.0803 160.319 34.2403C160.639 34.2403 160.959 34.2403 161.279 34.4003V37.1204C160.799 36.9604 160.319 36.9604 159.999 36.9604C158.399 36.9604 156.959 38.2404 156.959 39.8404C156.959 40.0004 156.959 40.1604 156.959 40.3205V48.9607H153.919V34.2403Z" fill="white"/>
<path d="M175.038 44.4804C174.718 47.0406 171.998 48.9608 168.798 48.9608C164.638 48.9608 161.918 46.0805 161.918 41.6002C161.918 37.1198 164.478 34.0796 168.638 34.0796C172.638 34.0796 175.198 36.7998 175.198 41.2802V42.2402H164.958V42.4002C164.798 44.4804 166.238 46.2406 168.318 46.5606C168.478 46.5606 168.638 46.5606 168.798 46.5606C170.238 46.7206 171.678 45.9205 172.158 44.4804H175.038ZM164.958 40.1601H172.158C172.318 38.2399 170.718 36.6398 168.798 36.4798C168.638 36.4798 168.638 36.4798 168.478 36.4798C166.558 36.4798 164.958 38.0799 164.958 40.1601Z" fill="white"/>
<path d="M56.6436 18.7195C56.6436 15.6797 58.2436 13.7599 60.9636 13.7599C62.8836 13.5999 64.6436 15.0398 64.9636 17.1196H63.5236C63.2036 15.9997 62.2436 15.1998 60.9636 15.1998C59.2036 15.1998 58.2436 16.6397 58.2436 18.8794C58.2436 21.1192 59.3636 22.5591 60.9636 22.5591C62.0836 22.7191 63.2036 21.9192 63.5236 20.7993H64.9636C64.6436 22.7191 62.8836 24.1589 60.9636 23.999C58.4036 23.679 56.6436 21.7592 56.6436 18.7195Z" fill="white"/>
<path d="M66.5628 19.8399C66.4028 17.9202 67.6828 16.3204 69.6028 16.1604C71.5228 16.0005 73.1228 17.2803 73.2828 19.2C73.2828 19.36 73.2828 19.6799 73.2828 19.8399C73.4428 21.7596 72.1628 23.3594 70.2428 23.5194C68.3228 23.6794 66.7228 22.3996 66.5628 20.4798C66.5628 20.3199 66.5628 20.1599 66.5628 19.8399ZM71.8428 19.8399C71.8428 18.2401 71.2028 17.4403 69.9228 17.4403C68.6428 17.4403 68.0028 18.4001 68.0028 19.8399C68.0028 21.4397 68.6428 22.3996 69.9228 22.3996C71.2028 22.3996 71.8428 21.4397 71.8428 19.8399Z" fill="white"/>
<path d="M75.2056 16.3204H76.6456V17.4404H76.8056C77.1255 16.6404 78.0855 16.1604 78.8855 16.1604C80.1655 16.0005 81.2855 16.9604 81.4455 18.4003C81.4455 18.5603 81.4455 18.7203 81.4455 18.8802V23.5199H80.0055V19.2002C80.0055 18.0803 79.5255 17.4404 78.4055 17.4404C77.4455 17.4404 76.6456 18.0803 76.6456 19.0402C76.6456 19.2002 76.6456 19.2002 76.6456 19.3602V23.5199H75.2056V16.3204Z" fill="white"/>
<path d="M86.2446 16.1606C87.8446 16.1606 88.9646 16.9606 89.1246 18.2405H87.6846C87.5246 17.7605 87.0446 17.4405 86.2446 17.4405C85.4446 17.4405 84.8046 17.7605 84.8046 18.4005C84.8046 18.8804 85.1246 19.0404 85.9246 19.3604L87.0446 19.6804C88.4846 20.0003 89.1246 20.6403 89.1246 21.6002C89.1246 22.8801 87.8446 23.84 86.0846 23.84C84.3246 23.84 83.2046 23.0401 83.2046 21.7602H84.6446C84.9646 22.4001 85.6046 22.7201 86.2446 22.7201C87.2046 22.7201 87.6846 22.4001 87.6846 21.7602C87.6846 21.2802 87.3646 21.1202 86.5646 20.9602L85.2846 20.6403C83.8446 20.3203 83.2046 19.6804 83.2046 18.5604C83.3646 17.1206 84.6446 16.1606 86.2446 16.1606Z" fill="white"/>
<path d="M91.042 15.0402L92.642 12.8003H94.242L92.322 15.0402H91.042ZM91.202 16.3202H92.642V23.52H91.202V16.3202Z" fill="white"/>
<path d="M94.7258 24.16H96.1658C96.3258 24.64 96.9658 24.96 97.9258 24.96C99.0458 24.96 99.8457 24.32 99.8457 23.5201V22.0802H99.6857C99.2057 22.8801 98.4058 23.3601 97.4458 23.3601C95.6858 23.3601 94.4058 21.9202 94.4058 19.8404C94.4058 17.6005 95.5258 16.1606 97.4458 16.1606C98.4058 16.1606 99.2057 16.6406 99.6857 17.4405H99.8457V16.3206H101.286V23.5201C101.286 25.1199 100.006 26.2399 97.9258 26.2399C96.0058 26.2399 94.8858 25.4399 94.7258 24.16ZM99.8457 19.8404C99.8457 18.4005 99.0458 17.4405 97.9258 17.4405C96.6458 17.4405 96.0058 18.4005 96.0058 19.8404C96.0058 21.2802 96.6458 22.2402 97.9258 22.2402C99.0458 22.2402 99.8457 21.2802 99.8457 19.8404Z" fill="white"/>
<path d="M109.606 23.5203H108.166V22.4002H108.006C107.686 23.2002 106.726 23.8403 105.766 23.6803C104.486 23.8403 103.366 22.8802 103.206 21.4401C103.206 21.2801 103.206 21.1201 103.206 20.9601V16.3198H104.646V20.6401C104.646 21.7602 105.126 22.4002 106.086 22.4002C107.046 22.5602 107.846 21.7602 107.846 20.9601C107.846 20.8001 107.846 20.8001 107.846 20.6401V16.4798H109.286L109.606 23.5203Z" fill="white"/>
<path d="M117.921 21.6005C117.601 22.8806 116.161 23.8407 114.721 23.6807C112.961 23.6807 111.361 22.2405 111.361 20.4803C111.361 20.3203 111.361 20.1603 111.361 20.0003C111.041 18.2401 112.321 16.4798 114.241 16.3198C114.401 16.3198 114.561 16.3198 114.721 16.3198C116.801 16.3198 117.921 17.76 117.921 20.0003V20.4803H112.801C112.801 21.4405 113.601 22.4006 114.561 22.4006H114.721C115.361 22.5606 116.161 22.0805 116.481 21.6005H117.921ZM112.961 19.2002H116.641C116.641 18.2401 116.001 17.44 115.041 17.2799H114.881C113.761 17.44 112.961 18.2401 112.961 19.2002Z" fill="white"/>
<path d="M120.005 13.4395H121.445V23.5194H120.005V13.4395Z" fill="white"/>
<path d="M123.362 19.8399C123.202 17.9202 124.482 16.3204 126.402 16.1604C128.322 16.0005 129.922 17.2803 130.082 19.2C130.082 19.36 130.082 19.6799 130.082 19.8399C130.242 21.7596 128.962 23.3594 127.042 23.5194C125.122 23.6794 123.522 22.3996 123.362 20.4798C123.362 20.3199 123.362 20.1599 123.362 19.8399ZM128.642 19.8399C128.642 18.2401 128.002 17.4403 126.722 17.4403C125.442 17.4403 124.802 18.4001 124.802 19.8399C124.802 21.4397 125.442 22.3996 126.722 22.3996C128.002 22.3996 128.642 21.4397 128.642 19.8399Z" fill="white"/>
<path d="M142.083 21.6005C141.763 22.8806 140.323 23.8407 138.883 23.6807C137.123 23.6807 135.523 22.2405 135.523 20.4803C135.523 20.3203 135.523 20.1603 135.523 20.0003C135.203 18.2401 136.483 16.4798 138.403 16.3198C138.563 16.3198 138.723 16.3198 138.883 16.3198C140.963 16.3198 142.083 17.76 142.083 20.0003V20.4803H136.963C136.803 21.6005 137.603 22.4006 138.723 22.5606H138.883C139.523 22.7206 140.323 22.2405 140.643 21.7605L142.083 21.6005ZM137.123 19.2002H140.803C140.803 18.2401 140.163 17.44 139.203 17.2799H139.043C137.923 17.44 137.123 18.2401 137.123 19.2002Z" fill="white"/>
<path d="M144.005 16.3204H145.445V17.4404H145.605C145.925 16.6404 146.885 16.1604 147.685 16.1604C148.965 16.0005 150.085 16.9604 150.245 18.4003C150.245 18.5603 150.245 18.7203 150.245 18.8802V23.5199H148.805V19.2002C148.805 18.0803 148.325 17.4404 147.205 17.4404C146.245 17.4404 145.445 18.0803 145.445 19.0402C145.445 19.2002 145.445 19.2002 145.445 19.3602V23.5199H144.005V16.3204Z" fill="white"/>
<path d="M162.401 21.6005C162.081 22.8806 160.641 23.8407 159.201 23.6807C157.441 23.6807 155.841 22.2405 155.841 20.4803C155.841 20.3203 155.841 20.1603 155.841 20.0003C155.521 18.2401 156.801 16.4798 158.721 16.3198C158.881 16.3198 159.041 16.3198 159.201 16.3198C161.281 16.3198 162.401 17.76 162.401 20.0003V20.4803H157.281C157.121 21.6005 157.921 22.4006 159.041 22.5606H159.201C159.841 22.7206 160.641 22.2405 160.961 21.7605L162.401 21.6005ZM157.441 19.2002H161.121C161.121 18.2401 160.481 17.44 159.521 17.2799H159.361C158.241 17.44 157.441 18.2401 157.441 19.2002Z" fill="white"/>
<path d="M164.481 13.4395H165.921V23.5194H164.481V13.4395Z" fill="white"/>
</svg>
