<svg width="32" height="32" viewBox="0 0 32 32" fill="none" xmlns="http://www.w3.org/2000/svg">
<g clip-path="url(#clip0_3735_15459)">
<path d="M31.3641 16.3683C31.3641 15.2807 31.2759 14.1872 31.0878 13.1172H15.9961V19.2785H24.6384C24.2798 21.2656 23.1275 23.0235 21.4402 24.1405V28.1383H26.5962C29.6239 25.3516 31.3641 21.2362 31.3641 16.3683Z" fill="#4285F4"/>
<path d="M15.9972 32.0005C20.3125 32.0005 23.9517 30.5836 26.6031 28.1379L21.4472 24.1401C20.0126 25.116 18.1607 25.6686 16.0031 25.6686C11.8289 25.6686 8.2897 22.8526 7.01981 19.0664H1.69922V23.1877C4.41537 28.5906 9.94761 32.0005 15.9972 32.0005Z" fill="#34A853"/>
<path d="M7.01477 19.0656C6.34455 17.0785 6.34455 14.9268 7.01477 12.9396V8.81836H1.70005C-0.569287 13.3394 -0.569287 18.6659 1.70005 23.1869L7.01477 19.0656Z" fill="#FBBC04"/>
<path d="M15.9972 6.33093C18.2783 6.29565 20.4829 7.154 22.135 8.7296L26.703 4.16154C23.8105 1.44539 19.9715 -0.0479078 15.9972 -0.000874904C9.9476 -0.000874904 4.41536 3.40901 1.69922 8.81779L7.01393 12.939C8.27793 9.14702 11.823 6.33093 15.9972 6.33093Z" fill="#EA4335"/>
</g>
<defs>
<clipPath id="clip0_3735_15459">
<rect width="31.3651" height="32" fill="white"/>
</clipPath>
</defs>
</svg>
