<svg xmlns="http://www.w3.org/2000/svg" width="135" height="42" viewBox="0 0 135 42" fill="none">
  <path d="M130 41.4219H5C2.2 41.4219 0 39.1437 0 36.2441V5.17773C0 2.2782 2.2 0 5 0H130C132.8 0 135 2.2782 135 5.17773V36.2441C135 39.1437 132.8 41.4219 130 41.4219Z" fill="black"/>
  <path d="M130 0.828438C132.3 0.828438 134.2 2.79598 134.2 5.17773V36.2441C134.2 38.6259 132.3 40.5934 130 40.5934H5C2.7 40.5934 0.8 38.6259 0.8 36.2441V5.17773C0.8 2.79598 2.7 0.828438 5 0.828438H130ZM130 0H5C2.2 0 0 2.38176 0 5.17773V36.2441C0 39.1437 2.2 41.4219 5 41.4219H130C132.8 41.4219 135 39.1437 135 36.2441V5.17773C135 2.38176 132.8 0 130 0Z" fill="#A6A6A6"/>
  <path d="M68.1016 22.575C65.7016 22.575 63.8016 24.439 63.8016 27.0278C63.8016 29.5131 65.7016 31.4806 68.1016 31.4806C70.5016 31.4806 72.4016 29.6166 72.4016 27.0278C72.4016 24.3354 70.5016 22.575 68.1016 22.575ZM68.1016 29.6166C66.8016 29.6166 65.7016 28.4775 65.7016 26.9242C65.7016 25.3709 66.8016 24.2319 68.1016 24.2319C69.4016 24.2319 70.5016 25.2674 70.5016 26.9242C70.5016 28.4775 69.4016 29.6166 68.1016 29.6166ZM58.8016 22.575C56.4016 22.575 54.5016 24.439 54.5016 27.0278C54.5016 29.5131 56.4016 31.4806 58.8016 31.4806C61.2016 31.4806 63.1016 29.6166 63.1016 27.0278C63.1016 24.3354 61.2016 22.575 58.8016 22.575ZM58.8016 29.6166C57.5016 29.6166 56.4016 28.4775 56.4016 26.9242C56.4016 25.3709 57.5016 24.2319 58.8016 24.2319C60.1016 24.2319 61.2016 25.2674 61.2016 26.9242C61.2016 28.4775 60.1016 29.6166 58.8016 29.6166ZM47.7016 23.9212V25.7852H52.0016C51.9016 26.8207 51.5016 27.6491 51.0016 28.1669C50.4016 28.7882 49.4016 29.5131 47.7016 29.5131C45.0016 29.5131 43.0016 27.3385 43.0016 24.5425C43.0016 21.7466 45.1016 19.572 47.7016 19.572C49.1016 19.572 50.2016 20.1933 51.0016 20.9182L52.3016 19.572C51.2016 18.5364 49.8016 17.708 47.8016 17.708C44.2016 17.708 41.1016 20.8146 41.1016 24.5425C41.1016 28.2704 44.2016 31.377 47.8016 31.377C49.8016 31.377 51.2016 30.7557 52.4016 29.4095C53.6016 28.1669 54.0016 26.4065 54.0016 25.0603C54.0016 24.6461 54.0016 24.2319 53.9016 23.9212H47.7016ZM93.1016 25.3709C92.7016 24.3354 91.7016 22.575 89.5016 22.575C87.3016 22.575 85.5016 24.3354 85.5016 27.0278C85.5016 29.5131 87.3016 31.4806 89.7016 31.4806C91.6016 31.4806 92.8016 30.2379 93.2016 29.5131L91.8016 28.4775C91.3016 29.2024 90.7016 29.7202 89.7016 29.7202C88.7016 29.7202 88.1016 29.306 87.6016 28.374L93.3016 25.8887L93.1016 25.3709ZM87.3016 26.8207C87.3016 25.1638 88.6016 24.2319 89.5016 24.2319C90.2016 24.2319 90.9016 24.6461 91.1016 25.1638L87.3016 26.8207ZM82.6016 31.0664H84.5016V18.1222H82.6016V31.0664ZM79.6016 23.507C79.1016 22.9892 78.3016 22.4715 77.3016 22.4715C75.2016 22.4715 73.2016 24.439 73.2016 26.9242C73.2016 29.4095 75.1016 31.2735 77.3016 31.2735C78.3016 31.2735 79.1016 30.7557 79.5016 30.2379H79.6016V30.8593C79.6016 32.5161 78.7016 33.4481 77.3016 33.4481C76.2016 33.4481 75.4016 32.6197 75.2016 31.8948L73.6016 32.6197C74.1016 33.7588 75.3016 35.2085 77.4016 35.2085C79.6016 35.2085 81.4016 33.8623 81.4016 30.6522V22.7821H79.6016V23.507ZM77.4016 29.6166C76.1016 29.6166 75.0016 28.4775 75.0016 26.9242C75.0016 25.3709 76.1016 24.2319 77.4016 24.2319C78.7016 24.2319 79.7016 25.3709 79.7016 26.9242C79.7016 28.4775 78.7016 29.6166 77.4016 29.6166ZM101.802 18.1222H97.3016V31.0664H99.2016V26.1994H101.802C103.902 26.1994 105.902 24.6461 105.902 22.1608C105.902 19.6755 103.902 18.1222 101.802 18.1222ZM101.902 24.3354H99.2016V19.8826H101.902C103.302 19.8826 104.102 21.1253 104.102 22.0572C104.002 23.1963 103.202 24.3354 101.902 24.3354ZM113.402 22.4715C112.002 22.4715 110.602 23.0928 110.102 24.439L111.802 25.1638C112.202 24.439 112.802 24.2319 113.502 24.2319C114.502 24.2319 115.402 24.8532 115.502 25.8887V25.9923C115.202 25.7852 114.402 25.4745 113.602 25.4745C111.802 25.4745 110.002 26.51 110.002 28.374C110.002 30.1344 111.502 31.2735 113.102 31.2735C114.402 31.2735 115.002 30.6522 115.502 30.0308H115.602V31.0664H117.402V26.0958C117.202 23.8176 115.502 22.4715 113.402 22.4715ZM113.202 29.6166C112.602 29.6166 111.702 29.306 111.702 28.4775C111.702 27.442 112.802 27.1313 113.702 27.1313C114.502 27.1313 114.902 27.3385 115.402 27.5456C115.202 28.7882 114.202 29.6166 113.202 29.6166ZM123.702 22.7821L121.602 28.374H121.502L119.302 22.7821H117.302L120.602 30.6522L118.702 35.0014H120.602L125.702 22.7821H123.702ZM106.902 31.0664H108.802V18.1222H106.902V31.0664Z" fill="white"/>
  <path d="M10.4 7.7666C10.1 8.07726 10 8.59502 10 9.21634V32.1015C10 32.7228 10.2 33.2406 10.5 33.5512L10.6 33.6548L23 20.8142V20.7107V20.6071L10.4 7.7666Z" fill="url(#paint0_linear_992_241007)"/>
  <path d="M26.9984 25.1636L22.8984 20.9178V20.7107V20.6071L26.9984 16.3613L27.0984 16.4649L31.9984 19.3644C33.3984 20.1929 33.3984 21.5391 31.9984 22.3676L26.9984 25.1636Z" fill="url(#paint1_linear_992_241007)"/>
  <path d="M27.0984 25.0601L22.8984 20.7109L10.3984 33.6548C10.8984 34.1725 11.5984 34.1725 12.4984 33.7583L27.0984 25.0601Z" fill="url(#paint2_linear_992_241007)"/>
  <path d="M27.0984 16.3612L12.4984 7.76619C11.5984 7.24842 10.8984 7.35197 10.3984 7.86974L22.8984 20.7104L27.0984 16.3612Z" fill="url(#paint3_linear_992_241007)"/>
  <path opacity="0.2" d="M26.9984 24.957L12.4984 33.4482C11.6984 33.966 10.9984 33.8624 10.4984 33.4482L10.3984 33.5518L10.4984 33.6553C10.9984 34.0695 11.6984 34.1731 12.4984 33.6553L26.9984 24.957Z" fill="black"/>
  <path opacity="0.12" d="M10.4 33.4487C10.1 33.1381 10 32.6203 10 31.999V32.1026C10 32.7239 10.2 33.2416 10.5 33.5522V33.4487H10.4Z" fill="black"/>
  <path opacity="0.12" d="M32 22.0571L27 24.9565L27.1 25.0601L32 22.1606C32.7 21.7464 33 21.2287 33 20.7109C33 21.2287 32.6 21.6429 32 22.0571Z" fill="black"/>
  <path opacity="0.25" d="M12.5 7.87027L32 19.3647C32.6 19.779 33 20.1932 33 20.7109C33 20.1932 32.7 19.6754 32 19.2612L12.5 7.76671C11.1 6.93828 10 7.55961 10 9.21647V9.32002C10 7.76671 11.1 7.04184 12.5 7.87027Z" fill="white"/>
  <path d="M41.3008 13.4614V7.24805H43.1008C44.0008 7.24805 44.8008 7.55872 45.3008 8.0765C45.9008 8.69784 46.1008 9.42273 46.1008 10.3547C46.1008 11.2867 45.8008 12.0116 45.3008 12.633C44.8008 13.1508 44.0008 13.4614 43.1008 13.4614H41.3008ZM42.1008 12.7365H43.2008C43.9008 12.7365 44.4008 12.5294 44.8008 12.1152C45.2008 11.701 45.4008 11.0796 45.4008 10.3547C45.4008 9.62984 45.2008 9.0085 44.8008 8.59428C44.4008 8.18005 43.8008 7.97294 43.2008 7.97294H42.1008V12.7365Z" fill="white" stroke="white" stroke-width="0.2" stroke-miterlimit="10"/>
  <path d="M47.1992 13.4619V7.24805H47.9992V13.4619H47.1992Z" fill="white" stroke="white" stroke-width="0.2" stroke-miterlimit="10"/>
  <path d="M51.1 13.5654C50.7 13.5654 50.2 13.4619 49.8 13.1512C49.4 12.8405 49.1 12.4262 49 11.9084L49.7 11.5977C49.8 11.9084 50 12.2191 50.2 12.4262C50.5 12.6334 50.8 12.7369 51.1 12.7369C51.4 12.7369 51.7 12.6334 52 12.4262C52.2 12.2191 52.4 12.012 52.4 11.7013C52.4 11.3906 52.3 11.0799 52 10.8728C51.8 10.6657 51.4 10.4585 50.9 10.355C50.4 10.1479 50 9.94073 49.7 9.7336C49.4 9.42291 49.3 9.11223 49.3 8.69797C49.3 8.28372 49.5 7.86947 49.8 7.55878C50 7.24809 50.5 7.14453 51 7.14453C51.5 7.14453 51.9 7.24809 52.2 7.55878C52.5 7.86947 52.7 8.0766 52.8 8.38729L52.1 8.69797C52.1 8.49085 52 8.28372 51.8 8.0766C51.6 7.86947 51.3 7.86947 51 7.86947C50.7 7.86947 50.5 7.97303 50.2 8.0766C50.1 8.28372 50 8.49085 50 8.80154C50 9.00866 50.1 9.21579 50.3 9.42291C50.5 9.63004 50.8 9.7336 51.2 9.83717C51.5 9.94073 51.7 10.0443 51.9 10.1479C52.1 10.2514 52.3 10.355 52.5 10.5621C52.7 10.6657 52.9 10.8728 53 11.1835C53.1 11.3906 53.2 11.7013 53.2 12.012C53.2 12.3227 53.1 12.6334 53 12.8405C52.9 13.0476 52.7 13.2547 52.5 13.3583C52.2 13.3583 52 13.4619 51.8 13.4619C51.6 13.5654 51.3 13.5654 51.1 13.5654Z" fill="white" stroke="white" stroke-width="0.2" stroke-miterlimit="10"/>
  <path d="M54.9992 13.4619H54.1992V7.24805H56.1992C56.6992 7.24805 57.0992 7.45518 57.4992 7.76587C57.8992 8.07656 58.0992 8.59438 58.0992 9.11221C58.0992 9.63003 57.8992 10.0443 57.4992 10.4585C57.0992 10.7692 56.6992 10.9764 56.1992 10.9764H54.9992V13.4619ZM54.9992 10.1479H56.2992C56.5992 10.1479 56.8992 10.0443 57.0992 9.83716C57.2992 9.63003 57.3992 9.31934 57.3992 9.11221C57.3992 8.90508 57.1992 8.59439 56.9992 8.38726C56.7992 8.18013 56.4992 8.07656 56.1992 8.07656H54.9992V10.1479Z" fill="white" stroke="white" stroke-width="0.2" stroke-miterlimit="10"/>
  <path d="M63.9992 12.6334C63.3992 13.2547 62.6992 13.5654 61.7992 13.5654C60.8992 13.5654 60.1992 13.2547 59.5992 12.6334C58.9992 12.012 58.6992 11.287 58.6992 10.355C58.6992 9.42291 58.9992 8.69797 59.5992 8.0766C60.1992 7.45522 60.8992 7.14453 61.7992 7.14453C62.6992 7.14453 63.3992 7.45522 63.9992 8.0766C64.5992 8.69797 64.8992 9.42291 64.8992 10.355C64.8992 11.287 64.5992 12.012 63.9992 12.6334ZM60.1992 12.1155C60.5992 12.5298 61.1992 12.8405 61.7992 12.8405C62.3992 12.8405 62.9992 12.6334 63.3992 12.1155C63.7992 11.7013 64.0992 11.0799 64.0992 10.355C64.0992 9.63004 63.8992 9.00866 63.3992 8.59441C62.9992 8.18016 62.3992 7.86947 61.7992 7.86947C61.1992 7.86947 60.5992 8.0766 60.1992 8.59441C59.7992 9.00866 59.4992 9.63004 59.4992 10.355C59.4992 11.0799 59.6992 11.7013 60.1992 12.1155Z" fill="white" stroke="white" stroke-width="0.2" stroke-miterlimit="10"/>
  <path d="M66 13.4614V7.24805H66.9L69.8 12.1152V10.8725V7.24805H70.6V13.4614H69.8L66.7 8.38717V9.62984V13.4614H66Z" fill="white" stroke="white" stroke-width="0.2" stroke-miterlimit="10"/>
  <path d="M72 13.4614V7.24805H72.8V13.4614H72Z" fill="white" stroke="white" stroke-width="0.2" stroke-miterlimit="10"/>
  <path d="M74.1016 13.4614V7.24805H76.3016C76.8016 7.24805 77.2016 7.45516 77.5016 7.76583C77.8016 8.0765 78.0016 8.49072 78.0016 8.90495C78.0016 9.21562 77.9016 9.42273 77.8016 9.7334C77.7016 9.94051 77.5016 10.1476 77.2016 10.2512C77.5016 10.3547 77.7016 10.5618 77.9016 10.769C78.1016 10.9761 78.2016 11.2867 78.2016 11.701C78.2016 12.2188 78.0016 12.633 77.7016 12.9436C77.3016 13.2543 76.9016 13.4614 76.4016 13.4614H74.1016ZM74.9016 9.94051H76.3016C76.6016 9.94051 76.8016 9.83695 77.0016 9.62984C77.2016 9.42273 77.3016 9.21562 77.3016 9.0085C77.3016 8.80139 77.1016 8.49072 77.0016 8.28361C76.8016 8.0765 76.6016 7.97294 76.3016 7.97294H74.9016V9.94051ZM74.9016 12.7365H76.5016C76.8016 12.7365 77.0016 12.633 77.2016 12.4259C77.4016 12.2188 77.5016 12.0116 77.5016 11.701C77.5016 11.4939 77.4016 11.1832 77.2016 10.9761C77.0016 10.769 76.8016 10.6654 76.5016 10.6654H75.0016V12.7365H74.9016Z" fill="white" stroke="white" stroke-width="0.2" stroke-miterlimit="10"/>
  <path d="M79.1992 13.4619V7.24805H79.9992V12.737H82.5992V13.4619H79.1992Z" fill="white" stroke="white" stroke-width="0.2" stroke-miterlimit="10"/>
  <path d="M87.1016 7.97294H84.4016V9.94051H86.9016V10.6654H84.4016V12.633H87.1016V13.4614H83.6016V7.24805H87.1016V7.97294Z" fill="white" stroke="white" stroke-width="0.2" stroke-miterlimit="10"/>
  <path d="M93.8008 7.97294H91.1008V9.94051H93.6008V10.6654H91.1008V12.633H93.8008V13.4614H90.3008V7.24805H93.8008V7.97294Z" fill="white" stroke="white" stroke-width="0.2" stroke-miterlimit="10"/>
  <path d="M95 13.4614V7.24805H96L98.9 12.1152V10.8725V7.24805H99.7V13.4614H98.9L95.8 8.38717V9.62984V13.4614H95Z" fill="white" stroke="white" stroke-width="0.2" stroke-miterlimit="10"/>
  <defs>
    <linearGradient id="paint0_linear_992_241007" x1="21.7996" y1="9.01938" x2="4.43155" y2="25.7916" gradientUnits="userSpaceOnUse">
      <stop stop-color="#00A0FF"/>
      <stop offset="0.00657445" stop-color="#00A1FF"/>
      <stop offset="0.2601" stop-color="#00BEFF"/>
      <stop offset="0.5122" stop-color="#00D2FF"/>
      <stop offset="0.7604" stop-color="#00DFFF"/>
      <stop offset="1" stop-color="#00E3FF"/>
    </linearGradient>
    <linearGradient id="paint1_linear_992_241007" x1="33.8327" y1="20.7122" x2="9.63585" y2="20.7122" gradientUnits="userSpaceOnUse">
      <stop stop-color="#FFE000"/>
      <stop offset="0.4087" stop-color="#FFBD00"/>
      <stop offset="0.7754" stop-color="#FFA500"/>
      <stop offset="1" stop-color="#FF9C00"/>
    </linearGradient>
    <linearGradient id="paint2_linear_992_241007" x1="24.8253" y1="23.0887" x2="1.27328" y2="45.8331" gradientUnits="userSpaceOnUse">
      <stop stop-color="#FF3A44"/>
      <stop offset="1" stop-color="#C31162"/>
    </linearGradient>
    <linearGradient id="paint3_linear_992_241007" x1="7.29564" y1="0.1822" x2="17.813" y2="10.3385" gradientUnits="userSpaceOnUse">
      <stop stop-color="#32A071"/>
      <stop offset="0.0685" stop-color="#2DA771"/>
      <stop offset="0.4762" stop-color="#15CF74"/>
      <stop offset="0.8009" stop-color="#06E775"/>
      <stop offset="1" stop-color="#00F076"/>
    </linearGradient>
  </defs>
</svg>