<svg width="181" height="77" viewBox="0 0 181 77" fill="none" xmlns="http://www.w3.org/2000/svg">
<path fill-rule="evenodd" clip-rule="evenodd" d="M57.0814 77H19.9124C8.91683 77 0 68.0887 0 57.086V19.914C0 8.91755 8.91683 0 19.9124 0H57.0876C68.0832 0 77 8.91755 77 19.914V57.0922C76.9938 68.0886 68.0832 77 57.0814 77Z" fill="white"/>
<path fill-rule="evenodd" clip-rule="evenodd" d="M22.8106 33.5697C25.405 25.2538 34.2897 20.6101 42.6464 23.1942C46.7205 24.4572 49.9081 27.1903 51.818 30.6423C53.05 32.8702 55.866 33.6798 58.1084 32.4557C60.3507 31.2252 61.1655 28.4273 59.927 26.1994C56.9155 20.7396 51.8441 16.3874 45.3972 14.3926C32.1581 10.2994 18.0847 17.6568 13.9715 30.8366C9.85828 44.0099 17.2503 58.0122 30.4959 62.1119C39.6023 64.9292 50.8141 61.5743 54.471 53.8996L54.2298 59.6453C54.2298 61.9057 56.0746 63.7385 58.343 63.7385C60.618 63.7385 62.4562 61.9057 62.4562 59.6453V42.6498C62.4562 40.3895 60.6115 38.5566 58.343 38.5566H41.6035C39.3285 38.5566 37.4903 40.3895 37.4903 42.6498C37.4903 44.9101 39.335 46.9956 41.6035 46.9956L49.706 46.743C45.9578 52.5849 40.2085 55.4669 33.2402 53.3102C24.8835 50.7261 20.2097 41.8856 22.8106 33.5697Z" fill="#FF344C"/>
<path d="M121.422 38.3634C121.422 47.3638 127.411 52.6389 135.25 52.6389C138.49 52.6389 142.137 51.4969 144.941 49.5663L142.246 44.6718C140.259 45.8683 138.381 46.4937 136.366 46.4937C132.746 46.4937 129.969 44.6718 129.262 40.5659H145.622C145.785 39.9133 145.948 38.5809 145.948 37.167C145.948 29.7437 142.083 24.0879 134.325 24.0879C127.737 24.0879 121.422 29.5262 121.422 38.3634ZM129.18 35.5627C129.724 31.9462 131.929 30.2332 134.461 30.2332C137.7 30.2332 139.034 32.4357 139.034 35.5627H129.18Z" fill="white"/>
<path d="M149.84 43.53C149.84 49.0227 151.718 52.6391 157.271 52.6391C159.095 52.6391 160.456 52.3672 161.355 51.9865L160.375 46.0044C159.939 46.1132 159.721 46.1132 159.395 46.1132C158.741 46.1132 157.952 45.5693 157.952 43.8563V13.4834H149.867V43.53H149.84Z" fill="white"/>
<path d="M165.055 42.0887C165.055 48.3972 167.696 52.639 174.474 52.639C177.114 52.639 179.102 52.0952 180.517 51.6601L179.238 45.7868C178.53 46.0587 177.523 46.3306 176.652 46.3306C174.501 46.3306 173.14 45.0798 173.14 41.98V31.049H179.701V24.7406H173.14V17.4805H166.416L165.491 24.7406L161.299 25.0669V31.049H165.055V42.0887V42.0887Z" fill="white"/>
<path d="M98.99 38.5271C98.99 40.4577 99.4256 42.198 100.324 43.6935C101.195 45.1618 102.801 45.896 105.115 45.896C105.823 45.896 106.585 45.76 107.429 45.4609C108.3 45.1346 109.089 44.754 109.797 44.3733V32.98C109.062 32.4634 108.245 32.0283 107.374 31.6749C106.503 31.3214 105.659 31.131 104.897 31.131C102.692 31.131 101.141 31.9468 100.269 33.6055C99.4256 35.1826 98.99 36.8412 98.99 38.5271ZM117.882 25.3936V51.9869C117.882 55.4402 116.738 58.2137 114.425 60.3347C112.138 62.4556 108.654 63.5161 103.917 63.5161C102.774 63.5161 101.113 63.2713 98.9084 62.7547C96.7034 62.2381 94.8524 61.4767 93.3552 60.4434L95.7779 54.7876C97.4656 55.6034 98.9084 56.1472 100.079 56.5007C101.249 56.8542 102.474 57.0445 103.781 57.0445C105.768 57.0445 107.265 56.5822 108.3 55.6577C109.334 54.7876 109.851 53.564 109.851 52.0413V50.8448C108.817 51.3887 107.728 51.8237 106.558 52.0957C105.387 52.422 104.217 52.5851 103.1 52.5851C99.0717 52.5851 95.9957 51.2527 93.8996 48.588C91.7219 45.896 90.6875 42.5786 90.6875 38.5815C90.6875 34.5572 91.7764 31.1854 93.9269 28.4663C96.1046 25.7199 99.2623 24.3604 103.4 24.3604C104.761 24.3604 106.231 24.6595 107.864 25.2849C109.47 25.8831 110.886 26.6444 112.056 27.5961L113.771 25.3936H117.882Z" fill="white"/>
</svg>
