<svg width="24" height="24" viewBox="0 0 24 24" fill="none" xmlns="http://www.w3.org/2000/svg">
<path fill-rule="evenodd" clip-rule="evenodd" d="M12 2.75C17.108 2.75 21.25 6.892 21.25 12C21.25 17.108 17.108 21.25 12 21.25C6.891 21.25 2.75 17.108 2.75 12C2.75 6.892 6.891 2.75 12 2.75Z" stroke="#525260" stroke-width="1.5" stroke-linecap="round" stroke-linejoin="round"/>
<path d="M7.52027 13.1968C6.85927 13.1968 6.32227 12.6598 6.32227 11.9998C6.32227 11.3398 6.85927 10.8018 7.52027 10.8018C8.18127 10.8018 8.71827 11.3398 8.71827 11.9998C8.71827 12.6598 8.18127 13.1968 7.52027 13.1968Z" fill="#525260"/>
<path d="M12.0007 13.1968C11.3397 13.1968 10.8027 12.6598 10.8027 11.9998C10.8027 11.3398 11.3397 10.8018 12.0007 10.8018C12.6617 10.8018 13.1987 11.3398 13.1987 11.9998C13.1987 12.6598 12.6617 13.1968 12.0007 13.1968Z" fill="#525260"/>
<path d="M16.4792 13.1968C15.8182 13.1968 15.2812 12.6598 15.2812 11.9998C15.2812 11.3398 15.8182 10.8018 16.4792 10.8018C17.1402 10.8018 17.6772 11.3398 17.6772 11.9998C17.6772 12.6598 17.1402 13.1968 16.4792 13.1968Z" fill="#525260"/>
</svg>
