<svg width="216" height="64" viewBox="0 0 216 64" fill="none" xmlns="http://www.w3.org/2000/svg">
<path d="M208 64H8C3.52 64 0 60.48 0 56V8C0 3.52 3.52 0 8 0H208C212.48 0 216 3.52 216 8V56C216 60.48 212.48 64 208 64Z" fill="black"/>
<path d="M208 1.28C211.68 1.28 214.72 4.32 214.72 8V56C214.72 59.68 211.68 62.72 208 62.72H8C4.32 62.72 1.28 59.68 1.28 56V8C1.28 4.32 4.32 1.28 8 1.28H208ZM208 0H8C3.52 0 0 3.68 0 8V56C0 60.48 3.52 64 8 64H208C212.48 64 216 60.48 216 56V8C216 3.68 212.48 0 208 0Z" fill="#A6A6A6"/>
<path d="M108.963 34.8802C105.123 34.8802 102.083 37.7602 102.083 41.7601C102.083 45.6001 105.123 48.64 108.963 48.64C112.803 48.64 115.843 45.7601 115.843 41.7601C115.843 37.6002 112.803 34.8802 108.963 34.8802ZM108.963 45.7601C106.883 45.7601 105.123 44.0001 105.123 41.6001C105.123 39.2002 106.883 37.4402 108.963 37.4402C111.043 37.4402 112.803 39.0402 112.803 41.6001C112.803 44.0001 111.043 45.7601 108.963 45.7601ZM94.0832 34.8802C90.2432 34.8802 87.2032 37.7602 87.2032 41.7601C87.2032 45.6001 90.2432 48.64 94.0832 48.64C97.9232 48.64 100.963 45.7601 100.963 41.7601C100.963 37.6002 97.9232 34.8802 94.0832 34.8802ZM94.0832 45.7601C92.0032 45.7601 90.2432 44.0001 90.2432 41.6001C90.2432 39.2002 92.0032 37.4402 94.0832 37.4402C96.1632 37.4402 97.9232 39.0402 97.9232 41.6001C97.9232 44.0001 96.1632 45.7601 94.0832 45.7601ZM76.3232 36.9602V39.8402H83.2032C83.0432 41.4401 82.4032 42.7201 81.6032 43.5201C80.6432 44.4801 79.0432 45.6001 76.3232 45.6001C72.0032 45.6001 68.8032 42.2401 68.8032 37.9202C68.8032 33.6003 72.1632 30.2403 76.3232 30.2403C78.5632 30.2403 80.3232 31.2003 81.6032 32.3203L83.6832 30.2403C81.9232 28.6403 79.6832 27.3604 76.4832 27.3604C70.7232 27.3604 65.7632 32.1603 65.7632 37.9202C65.7632 43.6801 70.7232 48.48 76.4832 48.48C79.6832 48.48 81.9232 47.5201 83.8432 45.4401C85.7632 43.5201 86.4032 40.8002 86.4032 38.7202C86.4032 38.0802 86.4032 37.4402 86.2432 36.9602H76.3232ZM148.963 39.2002C148.323 37.6002 146.723 34.8802 143.203 34.8802C139.683 34.8802 136.803 37.6002 136.803 41.7601C136.803 45.6001 139.683 48.64 143.523 48.64C146.563 48.64 148.483 46.7201 149.123 45.6001L146.883 44.0001C146.083 45.1201 145.123 45.9201 143.523 45.9201C141.923 45.9201 140.963 45.2801 140.163 43.8401L149.283 40.0002L148.963 39.2002ZM139.683 41.4401C139.683 38.8802 141.763 37.4402 143.203 37.4402C144.323 37.4402 145.443 38.0802 145.763 38.8802L139.683 41.4401ZM132.163 48.0001H135.203V28.0003H132.163V48.0001ZM127.363 36.3202C126.563 35.5202 125.283 34.7202 123.683 34.7202C120.323 34.7202 117.123 37.7602 117.123 41.6001C117.123 45.4401 120.163 48.32 123.683 48.32C125.283 48.32 126.563 47.5201 127.203 46.7201H127.363V47.6801C127.363 50.24 125.923 51.68 123.683 51.68C121.923 51.68 120.643 50.4 120.323 49.28L117.763 50.4C118.563 52.16 120.483 54.4 123.843 54.4C127.363 54.4 130.243 52.32 130.243 47.3601V35.2002H127.363V36.3202ZM123.843 45.7601C121.763 45.7601 120.003 44.0001 120.003 41.6001C120.003 39.2002 121.763 37.4402 123.843 37.4402C125.923 37.4402 127.523 39.2002 127.523 41.6001C127.523 44.0001 125.923 45.7601 123.843 45.7601ZM162.883 28.0003H155.683V48.0001H158.723V40.4802H162.883C166.243 40.4802 169.443 38.0802 169.443 34.2403C169.443 30.4003 166.243 28.0003 162.883 28.0003ZM163.043 37.6002H158.723V30.7203H163.043C165.283 30.7203 166.563 32.6403 166.563 34.0803C166.403 35.8402 165.123 37.6002 163.043 37.6002ZM181.443 34.7202C179.203 34.7202 176.963 35.6802 176.163 37.7602L178.883 38.8802C179.523 37.7602 180.483 37.4402 181.603 37.4402C183.203 37.4402 184.643 38.4002 184.803 40.0002V40.1602C184.323 39.8402 183.043 39.3602 181.763 39.3602C178.883 39.3602 176.003 40.9602 176.003 43.8401C176.003 46.5601 178.403 48.32 180.963 48.32C183.043 48.32 184.003 47.3601 184.803 46.4001H184.963V48.0001H187.843V40.3202C187.523 36.8002 184.803 34.7202 181.443 34.7202ZM181.123 45.7601C180.163 45.7601 178.723 45.2801 178.723 44.0001C178.723 42.4001 180.483 41.9201 181.923 41.9201C183.203 41.9201 183.843 42.2401 184.643 42.5601C184.323 44.4801 182.723 45.7601 181.123 45.7601ZM197.923 35.2002L194.563 43.8401H194.403L190.883 35.2002H187.683L192.963 47.3601L189.923 54.08H192.963L201.123 35.2002H197.923ZM171.043 48.0001H174.083V28.0003H171.043V48.0001Z" fill="white"/>
<path d="M16.639 12C16.159 12.48 15.999 13.28 15.999 14.24V49.5993C15.999 50.5593 16.319 51.3593 16.799 51.8392L16.959 51.9992L36.799 32.1596V31.9996V31.8396L16.639 12Z" fill="url(#paint0_linear_1072_347024)"/>
<path d="M43.1972 38.8794L36.6372 32.3194V31.9994V31.8394L43.1972 25.2793L43.3572 25.4393L51.1972 29.9193C53.4372 31.1994 53.4372 33.2794 51.1972 34.5594L43.1972 38.8794Z" fill="url(#paint1_linear_1072_347024)"/>
<path d="M43.3558 38.7197L36.6358 32L16.6357 51.9993C17.4357 52.7992 18.5557 52.7992 19.9957 52.1592L43.3558 38.7197Z" fill="url(#paint2_linear_1072_347024)"/>
<path d="M43.3558 25.279L19.9957 11.9991C18.5557 11.1991 17.4357 11.3591 16.6357 12.1591L36.6358 31.999L43.3558 25.279Z" fill="url(#paint3_linear_1072_347024)"/>
<path opacity="0.2" d="M43.1958 38.5596L19.9957 51.6791C18.7157 52.4791 17.5957 52.3191 16.7957 51.6791L16.6357 51.8391L16.7957 51.9991C17.5957 52.639 18.7157 52.799 19.9957 51.9991L43.1958 38.5596Z" fill="black"/>
<path opacity="0.12" d="M16.6385 51.6798C16.1585 51.1998 15.9985 50.3999 15.9985 49.4399V49.5999C15.9985 50.5599 16.3185 51.3598 16.7985 51.8398V51.6798H16.6385Z" fill="black"/>
<path opacity="0.12" d="M51.2002 34.0799L43.2002 38.5597L43.3602 38.7197L51.2002 34.2399C52.3202 33.5999 52.8002 32.8 52.8002 32C52.8002 32.8 52.1602 33.4399 51.2002 34.0799Z" fill="black"/>
<path opacity="0.25" d="M19.9995 12.16L51.1995 29.9199C52.1595 30.5599 52.7995 31.1999 52.7995 31.9999C52.7995 31.1999 52.3195 30.3999 51.1995 29.7599L19.9995 12C17.7595 10.72 15.9995 11.68 15.9995 14.24V14.4C15.9995 12 17.7595 10.88 19.9995 12.16Z" fill="white"/>
<path d="M66.0811 20.7999V11.1997H68.961C70.401 11.1997 71.681 11.6797 72.481 12.4797C73.441 13.4397 73.761 14.5598 73.761 15.9998C73.761 17.4398 73.281 18.5598 72.481 19.5198C71.681 20.3198 70.401 20.7999 68.961 20.7999H66.0811ZM67.3611 19.6798H69.121C70.241 19.6798 71.041 19.3598 71.681 18.7198C72.321 18.0798 72.641 17.1198 72.641 15.9998C72.641 14.8798 72.321 13.9198 71.681 13.2797C71.041 12.6397 70.081 12.3197 69.121 12.3197H67.3611V19.6798Z" fill="white" stroke="white" stroke-width="0.2" stroke-miterlimit="10"/>
<path d="M75.519 20.8001V11.1992H76.799V20.8001H75.519Z" fill="white" stroke="white" stroke-width="0.2" stroke-miterlimit="10"/>
<path d="M81.7613 20.9598C81.1214 20.9598 80.3214 20.7998 79.6814 20.3198C79.0414 19.8398 78.5614 19.1997 78.4014 18.3996L79.5214 17.9196C79.6814 18.3996 80.0014 18.8797 80.3214 19.1997C80.8014 19.5197 81.2814 19.6797 81.7613 19.6797C82.2413 19.6797 82.7213 19.5197 83.2013 19.1997C83.5213 18.8797 83.8413 18.5597 83.8413 18.0796C83.8413 17.5996 83.6813 17.1195 83.2013 16.7995C82.8813 16.4795 82.2414 16.1595 81.4414 15.9995C80.6414 15.6794 80.0014 15.3594 79.5214 15.0394C79.0414 14.5593 78.8814 14.0793 78.8814 13.4393C78.8814 12.7992 79.2014 12.1592 79.6814 11.6791C80.0014 11.1991 80.8014 11.0391 81.6014 11.0391C82.4013 11.0391 83.0413 11.1991 83.5213 11.6791C84.0013 12.1592 84.3213 12.4792 84.4813 12.9592L83.3613 13.4393C83.3613 13.1192 83.2013 12.7992 82.8813 12.4792C82.5613 12.1592 82.0814 12.1592 81.6014 12.1592C81.1214 12.1592 80.8014 12.3192 80.3214 12.4792C80.1614 12.7992 80.0014 13.1192 80.0014 13.5993C80.0014 13.9193 80.1614 14.2393 80.4814 14.5593C80.8014 14.8794 81.2814 15.0394 81.9214 15.1994C82.4014 15.3594 82.7214 15.5194 83.0413 15.6794C83.3613 15.8394 83.6813 15.9995 84.0013 16.3195C84.3213 16.4795 84.6413 16.7995 84.8013 17.2796C84.9613 17.5996 85.1213 18.0796 85.1213 18.5597C85.1213 19.0397 84.9613 19.5197 84.8013 19.8398C84.6413 20.1598 84.3213 20.4798 84.0013 20.6398C83.5213 20.6398 83.2013 20.7998 82.8813 20.7998C82.5613 20.9598 82.0813 20.9598 81.7613 20.9598Z" fill="white" stroke="white" stroke-width="0.2" stroke-miterlimit="10"/>
<path d="M87.9997 20.8001H86.7197V11.1992H89.9197C90.7197 11.1992 91.3597 11.5192 91.9997 11.9993C92.6397 12.4793 92.9597 13.2794 92.9597 14.0795C92.9597 14.8796 92.6397 15.5196 91.9997 16.1597C91.3597 16.6397 90.7197 16.9598 89.9197 16.9598H87.9997V20.8001ZM87.9997 15.6796H90.0797C90.5597 15.6796 91.0397 15.5196 91.3597 15.1996C91.6797 14.8796 91.8397 14.3995 91.8397 14.0795C91.8397 13.7595 91.5197 13.2794 91.1997 12.9594C90.8797 12.6394 90.3997 12.4793 89.9197 12.4793H87.9997V15.6796Z" fill="white" stroke="white" stroke-width="0.2" stroke-miterlimit="10"/>
<path d="M102.4 19.5197C101.44 20.4798 100.32 20.9598 98.8804 20.9598C97.4404 20.9598 96.3204 20.4798 95.3604 19.5197C94.4004 18.5597 93.9204 17.4396 93.9204 15.9995C93.9204 14.5593 94.4004 13.4393 95.3604 12.4792C96.3204 11.5191 97.4404 11.0391 98.8804 11.0391C100.32 11.0391 101.44 11.5191 102.4 12.4792C103.36 13.4393 103.84 14.5593 103.84 15.9995C103.84 17.4396 103.36 18.5597 102.4 19.5197ZM96.3204 18.7197C96.9604 19.3597 97.9204 19.8398 98.8804 19.8398C99.8404 19.8398 100.8 19.5197 101.44 18.7197C102.08 18.0796 102.56 17.1195 102.56 15.9995C102.56 14.8794 102.24 13.9193 101.44 13.2792C100.8 12.6392 99.8404 12.1592 98.8804 12.1592C97.9204 12.1592 96.9604 12.4792 96.3204 13.2792C95.6804 13.9193 95.2004 14.8794 95.2004 15.9995C95.2004 17.1195 95.5204 18.0796 96.3204 18.7197Z" fill="white" stroke="white" stroke-width="0.2" stroke-miterlimit="10"/>
<path d="M105.601 20.7999V11.1997H107.041L111.681 18.7198V16.7998V11.1997H112.961V20.7999H111.681L106.721 12.9597V14.8798V20.7999H105.601Z" fill="white" stroke="white" stroke-width="0.2" stroke-miterlimit="10"/>
<path d="M115.202 20.7999V11.1997H116.482V20.7999H115.202Z" fill="white" stroke="white" stroke-width="0.2" stroke-miterlimit="10"/>
<path d="M118.563 20.7999V11.1997H122.083C122.883 11.1997 123.523 11.5197 124.003 11.9997C124.483 12.4797 124.803 13.1197 124.803 13.7597C124.803 14.2398 124.643 14.5598 124.483 15.0398C124.323 15.3598 124.003 15.6798 123.523 15.8398C124.003 15.9998 124.323 16.3198 124.643 16.6398C124.963 16.9598 125.123 17.4398 125.123 18.0798C125.123 18.8798 124.803 19.5198 124.323 19.9998C123.683 20.4799 123.043 20.7999 122.243 20.7999H118.563ZM119.843 15.3598H122.083C122.563 15.3598 122.883 15.1998 123.203 14.8798C123.523 14.5598 123.683 14.2398 123.683 13.9197C123.683 13.5997 123.363 13.1197 123.203 12.7997C122.883 12.4797 122.563 12.3197 122.083 12.3197H119.843V15.3598ZM119.843 19.6798H122.403C122.883 19.6798 123.203 19.5198 123.523 19.1998C123.843 18.8798 124.003 18.5598 124.003 18.0798C124.003 17.7598 123.843 17.2798 123.523 16.9598C123.203 16.6398 122.883 16.4798 122.403 16.4798H120.003V19.6798H119.843Z" fill="white" stroke="white" stroke-width="0.2" stroke-miterlimit="10"/>
<path d="M126.72 20.8001V11.1992H128V19.68H132.16V20.8001H126.72Z" fill="white" stroke="white" stroke-width="0.2" stroke-miterlimit="10"/>
<path d="M139.363 12.3197H135.043V15.3598H139.043V16.4798H135.043V19.5198H139.363V20.7999H133.763V11.1997H139.363V12.3197Z" fill="white" stroke="white" stroke-width="0.2" stroke-miterlimit="10"/>
<path d="M150.082 12.3197H145.762V15.3598H149.762V16.4798H145.762V19.5198H150.082V20.7999H144.482V11.1997H150.082V12.3197Z" fill="white" stroke="white" stroke-width="0.2" stroke-miterlimit="10"/>
<path d="M152 20.7999V11.1997H153.6L158.24 18.7198V16.7998V11.1997H159.52V20.7999H158.24L153.28 12.9597V14.8798V20.7999H152Z" fill="white" stroke="white" stroke-width="0.2" stroke-miterlimit="10"/>
<defs>
<linearGradient id="paint0_linear_1072_347024" x1="34.8784" y1="13.9356" x2="8.02705" y2="40.7875" gradientUnits="userSpaceOnUse">
<stop stop-color="#00A0FF"/>
<stop offset="0.00657445" stop-color="#00A1FF"/>
<stop offset="0.2601" stop-color="#00BEFF"/>
<stop offset="0.5122" stop-color="#00D2FF"/>
<stop offset="0.7604" stop-color="#00DFFF"/>
<stop offset="1" stop-color="#00E3FF"/>
</linearGradient>
<linearGradient id="paint1_linear_1072_347024" x1="54.1321" y1="32.0018" x2="15.4171" y2="32.0018" gradientUnits="userSpaceOnUse">
<stop stop-color="#FFE000"/>
<stop offset="0.4087" stop-color="#FFBD00"/>
<stop offset="0.7754" stop-color="#FFA500"/>
<stop offset="1" stop-color="#FF9C00"/>
</linearGradient>
<linearGradient id="paint2_linear_1072_347024" x1="39.7188" y1="35.6738" x2="3.30689" y2="72.0871" gradientUnits="userSpaceOnUse">
<stop stop-color="#FF3A44"/>
<stop offset="1" stop-color="#C31162"/>
</linearGradient>
<linearGradient id="paint3_linear_1072_347024" x1="11.6713" y1="0.281251" x2="27.9313" y2="16.5413" gradientUnits="userSpaceOnUse">
<stop stop-color="#32A071"/>
<stop offset="0.0685" stop-color="#2DA771"/>
<stop offset="0.4762" stop-color="#15CF74"/>
<stop offset="0.8009" stop-color="#06E775"/>
<stop offset="1" stop-color="#00F076"/>
</linearGradient>
</defs>
</svg>
