<svg width="64" height="64" viewBox="0 0 64 64" fill="none" xmlns="http://www.w3.org/2000/svg">
<path d="M0 32C0 14.3269 14.3269 0 32 0C49.6731 0 64 14.3269 64 32C64 49.6731 49.6731 64 32 64C14.3269 64 0 49.6731 0 32Z" fill="#FF344C"/>
<path d="M44.5995 33.2023H19.5547" stroke="white" stroke-width="2" stroke-linecap="round" stroke-linejoin="round"/>
<path d="M42.3695 28.1813V25.8669C42.3695 23.6991 40.5964 21.926 38.4286 21.926H36.4805" stroke="white" stroke-width="2" stroke-linecap="round" stroke-linejoin="round"/>
<path d="M21.7852 28.1813V25.862C21.7852 23.6904 23.5445 21.9298 25.7161 21.9273L27.7077 21.926" stroke="white" stroke-width="2" stroke-linecap="round" stroke-linejoin="round"/>
<path d="M42.3695 33.2023V38.5723C42.3695 40.7389 40.5964 42.5132 38.4286 42.5132H36.4805" stroke="white" stroke-width="2" stroke-linecap="round" stroke-linejoin="round"/>
<path d="M21.7852 33.2023V38.5773C21.7852 40.7489 23.5445 42.5095 25.7161 42.512L27.7077 42.5132" stroke="white" stroke-width="2" stroke-linecap="round" stroke-linejoin="round"/>
</svg>
